HIERARCHY
ROOT ui
{
	 OFFSET 0 0 0
	 CHANNELS 3 XPosition YPosition Z Position
	 EndSite
	 {
	 OFFSET 0 -1 0
	 }
}
ROOT li
{
	 OFFSET 0 0 0
	 CHANNELS 3 XPosition YPosition Z Position
	 EndSite
	 {
	 OFFSET 0 -1 0
	 }
}
ROOT ul
{
	 OFFSET 0 0 0
	 CHANNELS 3 XPosition YPosition Z Position
	 EndSite
	 {
	 OFFSET 0 -1 0
	 }
}
ROOT ll
{
	 OFFSET 0 0 0
	 CHANNELS 3 XPosition YPosition Z Position
	 EndSite
	 {
	 OFFSET 0 -1 0
	 }
}
ROOT tt
{
	 OFFSET 0 0 0
	 CHANNELS 3 XPosition YPosition Z Position
	 EndSite
	 {
	 OFFSET 0 -1 0
	 }
}
ROOT tb
{
	 OFFSET 0 0 0
	 CHANNELS 3 XPosition YPosition Z Position
	 EndSite
	 {
	 OFFSET 0 -1 0
	 }
}
ROOT td
{
	 OFFSET 0 0 0
	 CHANNELS 3 XPosition YPosition Z Position
	 EndSite
	 {
	 OFFSET 0 -1 0
	 }
}
ROOT v
{
	 OFFSET 0 0 0
	 CHANNELS 3 XPosition YPosition Z Position
	 EndSite
	 {
	 OFFSET 0 -1 0
	 }
}
ROOT bn
{
	 OFFSET 0 0 0
	 CHANNELS 3 XPosition YPosition Z Position
	 EndSite
	 {
	 OFFSET 0 -1 0
	 }
}
MOTION
Frames: 21
Frame Time: 0.002
1.6498200595378875E-4	0.0010539289712905883	0		0.43144863891601565	-2.339691650390625	0		-1.1129354248046874	-0.032879707336425784	0		-0.8269013061523437	-2.297201904296875	0		1.6949986572265625	-0.45277407836914063	0		3.22013232421875	0.004623422145843506	0		4.52085302734375	0.020156782150268556	0		5.58302978515625	0.143307861328125	0		-0.2159141387939453	5.933744140625	0		
-0.01056026554107666	0.011515399932861329	0		0.42939324951171876	-2.341446533203125	0		-1.1128988037109375	-0.0326513671875	0		-0.8618295288085938	-2.293159423828125	0		1.7008612060546875	-0.45974005126953127	0		3.239281494140625	0.009319172859191895	0		4.52567822265625	0.011158887863159179	0		5.58306982421875	0.14340370178222656	0		-0.21575947570800783	5.93395458984375	0		
-0.005924006938934326	-0.005379938125610352	0		0.4532587890625	-2.3467998046875	0		-1.1200255126953125	-0.03924581909179688	0		-0.8279658203125	-2.298721435546875	0		1.6888681640625	-0.46027508544921875	0		3.2143955078125	0.013057300567626953	0		4.51678759765625	0.014495828628540038	0		5.57892236328125	0.1356051940917969	0		-0.21658071899414064	5.93519921875	0		
-0.005890143871307373	-0.005154541015625	0		0.401378173828125	-2.340363525390625	0		-1.1559588623046875	-0.03715319442749023	0		-0.9008866577148438	-2.29376611328125	0		1.6888929443359375	-0.46008319091796873	0		3.203573486328125	0.01947574234008789	0		4.50377880859375	0.01293770980834961	0		5.58567529296875	0.12355912780761719	0		-0.20119873046875	5.94507373046875	0		
3.043909966945648E-4	0.001933527946472168	0		0.4314039916992187	-2.33884619140625	0		-1.1487652587890624	-0.03006668281555176	0		-0.8968057861328125	-2.28961328125	0		1.661993896484375	-0.4562507019042969	0		3.2333388671875	0.007943421840667724	0		4.50795068359375	0.018987005233764648	0		5.59468310546875	0.12247218322753907	0		-0.1858461151123047	5.953953125	0		
0.008285799026489259	-1.956699974834919E-5	0		0.41834893798828127	-2.34031298828125	0		-1.1446656494140626	-0.02690631866455078	0		-0.8228604736328125	-2.292102783203125	0		1.7040517578125	-0.4550346984863281	0		3.20363671875	0.019822212219238283	0		4.5031708984375	0.027255535125732422	0		5.5742158203125	0.14409385681152342	0		-0.20091551208496095	5.94554638671875	0		
3.6559900641441347E-4	0.002404386043548584	0		0.480181640625	-2.34754150390625	0		-1.1127386474609375	-0.03140289306640625	0		-0.896824462890625	-2.289111083984375	0		1.65620556640625	-0.4486985168457031	0		3.20536083984375	0.006961163997650147	0		4.5210556640625	0.020994049072265625	0		5.57905908203125	0.1361209259033203	0		-0.2150400390625	5.93511865234375	0		
3.962709903717041E-4	0.0026404359340667723	0		0.418475830078125	-2.333855712890625	0		-1.1198714599609374	-0.03798279571533203	0		-0.8280133056640625	-2.297484375	0		1.688984619140625	-0.45926263427734376	0		3.2053916015625	0.007147643089294433	0		4.50594970703125	0.015515169143676759	0		5.57011767578125	0.13748240661621094	0		-0.2149176025390625	5.9353583984375	0		
-8.55787992477417E-4	-0.00909922218322754	0		0.4272825927734375	-2.341838134765625	0		-1.1157484130859374	-0.03382907485961914	0		-0.9009240112304687	-2.292519775390625	0		1.6620867919921876	-0.4554172668457031	0		3.22039453125	0.005982984066009522	0		4.52111767578125	0.02133036994934082	0		5.58583935546875	0.12426442718505859	0		-0.21480410766601563	5.9355947265625	0		
-0.005706683158874511	-0.003753972053527832	0		0.42933016967773435	-2.339662353515625	0		-1.11264892578125	-0.03065814208984375	0		-0.828013427734375	-2.29700048828125	0		1.7010531005859375	-0.4581282043457031	0		3.199642578125	0.01566461753845215	0		4.50329443359375	0.027926021575927735	0		5.58910595703125	0.13435060119628905	0		-0.20044534301757813	5.94649267578125	0		
0.0035560719966888426	0.006253657817840576	0		0.4313814697265625	-2.337491943359375	0		-1.1485863037109374	-0.028574682235717772	0		-0.89477734375	-2.28619091796875	0		1.6621357421875	-0.4550039367675781	0		3.220453857421875	0.006360601902008056	0		4.52117724609375	0.021678186416625975	0		5.5833740234375	0.14465306091308594	0		-0.20035319519042968	5.9467177734375	0		
5.153449773788452E-4	0.0035410199165344237	0		0.4293439025878906	-2.339232177734375	0		-1.0406346435546876	-0.0328973503112793	0		-0.8279989013671875	-2.296546142578125	0		1.695269775390625	-0.45058270263671873	0		3.224623779296875	0.012452560424804688	0		4.51539697265625	0.029994396209716796	0		5.579216796875	0.13691737365722656	0		-0.21452853393554688	5.9362685546875	0		
-0.0056187758445739745	-0.0031078290939331055	0		0.42731137084960935	-2.340979736328125	0		-1.1197249755859375	-0.03681634521484375	0		-0.900893310546875	-2.29161083984375	0		1.6952962646484375	-0.45038623046875	0		3.19973095703125	0.016228370666503907	0		4.517095703125	0.01612910842895508	0		5.58343505859375	0.14499179077148439	0		-0.21446026611328126	5.9364775390625	0		
-0.005588411808013916	-0.0029101340770721434	0		0.42733160400390624	-2.34078369140625	0		-1.11969482421875	-0.036613822937011715	0		-0.832057373046875	-2.300036376953125	0		1.70115771484375	-0.45733563232421875	0		3.178956298828125	0.024905790328979494	0		4.51507958984375	0.014354990005493165	0		5.594966796875	0.12388778686523437	0		-0.2134280548095703	5.93565283203125	0		
-6.75055980682373E-4	-0.007840429782867432	0		0.4132693176269531	-2.3442666015625	0		-1.1854547119140626	-0.026869020462036132	0		-0.8879898071289063	-2.2975263671875	0		1.662247802734375	-0.45423220825195315	0		3.23364306640625	0.009791129112243653	0		4.508255859375	0.020696182250976563	0		5.5901904296875	0.13217909240722656	0		-0.1829669952392578	5.95312646484375	0		
0.011666064262390136	0.005047059059143067	0		0.4443940124511719	-2.340824951171875	0		-1.1083914794921874	-0.026513992309570314	0		-0.82480322265625	-2.291842041015625	0		1.665379150390625	-0.45012872314453123	0		3.198139404296875	0.029812255859375	0		4.5213369140625	0.022565767288208007	0		5.58353662109375	0.14551849365234376	0		-0.199117431640625	5.9456806640625	0		
-0.0024038939476013184	5.416479706764221E-4	0		0.42949700927734374	-2.338307373046875	0		-1.1524765625	-0.031314380645751955	0		-0.9007542114257813	-2.29088720703125	0		1.6623311767578124	-0.4538888854980469	0		3.205685302734375	0.008801979064941406	0		4.51724072265625	0.016838813781738283	0		5.583580078125	0.14569879150390624	0		-0.199092041015625	5.9458427734375	0		
0.005622313976287842	-4.960539937019349E-4	0		0.45343765258789065	-2.34371923828125	0		-1.1154346923828125	-0.03204341125488281	0		-0.8318735961914062	-2.299368408203125	0		1.7013277587890625	-0.4566485900878906	0		3.2057373046875	0.008971059799194336	0		4.51729248046875	0.017015346527099608	0		5.5852060546875	0.12783919525146484	0		-0.21330592346191407	5.93632568359375	0		
-0.005361556053161621	-0.002096879959106445	0		0.4275948486328125	-2.3399638671875	0		-1.155433837890625	-0.03396872711181641	0		-0.8667378540039062	-2.29641064453125	0		1.66244970703125	-0.45357614135742186	0		3.211607177734375	9.96612012386322E-4	0		4.50430908203125	0.015498140335083007	0		5.58045556640625	0.13613905334472656	0		-0.19906153869628906	5.9461298828125	0		
-0.0022229669094085695	9.585980176925659E-4	0		0.43747256469726564	-2.349065673828125	0		-1.1122352294921876	-0.02886936378479004	0		-0.9005181274414062	-2.290491943359375	0		1.6625230712890624	-0.453431884765625	0		3.21502880859375	0.0160819091796875	0		4.5215615234375	0.023268510818481445	0		5.59525927734375	0.12497297668457032	0		-0.19905418395996094	5.9462548828125	0		
0.005828677177429199	-1.1438500136137009E-4	0		0.4318871154785156	-2.33580712890625	0		-1.1481239013671876	-0.026919368743896485	0		-0.852637939453125	-2.300516845703125	0		1.701548095703125	-0.45621481323242186	0		3.205943359375	0.009451022148132324	0		4.521638671875	0.023439632415771485	0		5.58383349609375	0.14643438720703125	0		-0.21328192138671875	5.93670068359375	0		
